<?xml version="1.0" encoding="UTF-8"?>
<svg width="800.0" height="600.0" xmlns="http://www.w3.org/2000/svg" viewBox="0 0 800.0 600.0">
    <polyline points="80.0,50.0 50.0,100.0 110.0,100.0 80.0,50.0" fill="lightcoral" fill-opacity="0.3" stroke="red" stroke-width="2.0" stroke-opacity="1.0" stroke-linecap="butt" transform="translate(0,0) scale(1,1) rotate(0,0,0) skewX(0) skewY(0)" />
    <polyline points="150.0,70.0 200.0,70.0 220.0,100.0 130.0,100.0 150.0,70.0" fill="lightblue" fill-opacity="0.3" stroke="blue" stroke-width="2.0" stroke-opacity="1.0" stroke-linecap="butt" transform="translate(0,0) scale(1,1) rotate(0,0,0) skewX(0) skewY(0)" />
    <polyline points="300.0,50.0 310.0,80.0 340.0,80.0 320.0,100.0 330.0,130.0 300.0,115.0 270.0,130.0 280.0,100.0 260.0,80.0 290.0,80.0 300.0,50.0" fill="yellow" fill-opacity="0.6" stroke="gold" stroke-width="2.0" stroke-opacity="1.0" stroke-linecap="butt" transform="translate(0,0) scale(1,1) rotate(0,0,0) skewX(0) skewY(0)" />
    <polyline points="50.0,180.0 70.0,150.0 90.0,180.0 110.0,150.0 130.0,180.0 150.0,150.0 170.0,180.0 190.0,150.0 210.0,180.0" fill="none" fill-opacity="1.0" stroke="green" stroke-width="3.0" stroke-opacity="1.0" stroke-linecap="butt" transform="translate(0,0) scale(1,1) rotate(0,0,0) skewX(0) skewY(0)" />
    <polyline points="250.0,180.0 250.0,150.0 280.0,150.0 280.0,180.0 310.0,180.0 310.0,150.0 340.0,150.0 340.0,180.0 370.0,180.0" fill="none" fill-opacity="1.0" stroke="purple" stroke-width="3.0" stroke-opacity="1.0" stroke-linecap="butt" transform="translate(0,0) scale(1,1) rotate(0,0,0) skewX(0) skewY(0)" />
    <polyline points="50.0,250.0 55.0,259.27050983124843 60.0,267.6335575687742 65.0,274.27050983124843 70.0,278.5316954888546 75.0,280.0 80.0,278.5316954888546 85.0,274.27050983124843 90.0,267.6335575687742 95.0,259.27050983124843 100.0,250.0 105.0,240.72949016875157 110.0,232.36644243122583 115.0,225.72949016875157 120.0,221.4683045111454 125.0,220.0 130.0,221.4683045111454 135.0,225.72949016875157 140.0,232.3664424312258 145.0,240.72949016875157 150.0,250.0 155.0,259.27050983124843 160.0,267.63355756877417 165.0,274.27050983124843 170.0,278.5316954888546 175.0,280.0 180.0,278.5316954888546 185.0,274.27050983124843 190.0,267.6335575687742 195.0,259.27050983124843 200.0,250.0 205.0,240.7294901687516 210.0,232.3664424312258 215.0,225.72949016875162 220.0,221.4683045111454 225.0,220.0 230.0,221.4683045111454 235.0,225.72949016875157 240.0,232.3664424312258 245.0,240.72949016875157" fill="none" fill-opacity="1.0" stroke="darkblue" stroke-width="2.0" stroke-opacity="1.0" stroke-linecap="butt" transform="translate(0,0) scale(1,1) rotate(0,0,0) skewX(0) skewY(0)" />
    <polyline points="300.0,412.5 305.0,400.625 310.0,390.0 315.0,380.625 320.0,372.5 325.0,365.625 330.0,360.0 335.0,355.625 340.0,352.5 345.0,350.625 350.0,350.0 355.0,350.625 360.0,352.5 365.0,355.625 370.0,360.0 375.0,365.625 380.0,372.5 385.0,380.625 390.0,390.0 395.0,400.625 400.0,412.5" fill="none" fill-opacity="1.0" stroke="darkorange" stroke-width="2.0" stroke-opacity="1.0" stroke-linecap="butt" transform="translate(0,0) scale(1,1) rotate(0,0,0) skewX(0) skewY(0)" />
    <polyline points="500.0,80.0 550.0,80.0 550.0,70.0 570.0,85.0 550.0,100.0 550.0,90.0 500.0,90.0 500.0,80.0" fill="red" fill-opacity="0.7" stroke="darkred" stroke-width="2.0" stroke-opacity="1.0" stroke-linecap="butt" transform="translate(0,0) scale(1,1) rotate(0,0,0) skewX(0) skewY(0)" />
    <polyline points="650.0,90.0 640.0,80.0 630.0,80.0 620.0,90.0 630.0,100.0 650.0,120.0 670.0,100.0 680.0,90.0 670.0,80.0 660.0,80.0 650.0,90.0" fill="pink" fill-opacity="0.6" stroke="deeppink" stroke-width="2.0" stroke-opacity="1.0" stroke-linecap="butt" transform="translate(0,0) scale(1,1) rotate(0,0,0) skewX(0) skewY(0)" />
    <polyline points="150.0,450.0 150.66026849192775,450.45171397871604 150.57977240716266,451.4912625375476 149.45471497273658,452.33723431410766 147.64034011026803,452.1614821777637 146.04003001359823,450.5644800322395 145.6955596015961,447.8759018721847 147.2545394004921,445.1191756744839 150.55999349401245,443.62454650345063 154.56978870678697,444.43609568959687 157.68136229320294,447.76467601440856 158.36204680923507,452.74156399891774 155.84017261950964,457.6192114929519 150.56113637385155,460.3848507918959 144.18396707389311,459.57150777058877 139.06643685738388,454.9454218229011 137.39599544583518,447.7686172003459 140.28598713243008,440.48170424872785 147.20164934704314,435.8745182870425 155.98106116848794,436.02620640989693 163.50166333971987,441.41483331199305 166.79050103641688,450.5648671933151 164.18355765447194,460.4204938588471 156.0869937542625,467.3640003177715 145.0115067606959,468.5406293097461 134.80624174282357,463.00575680314233 129.32110539617665,452.2412759678284 130.96235420817573,439.7956850937931 139.6807996419855,430.1184984477743 152.8058915183406,426.9703023730813 165.8476009978579,431.97630607747976 174.03175038488843,443.8750531889317 174.0440408754399,458.7888621777893 165.3468958319011,471.4809866701876 150.55354293862177,477.1943668838806 134.66358071372048,473.4263578790096 123.37521288247333,460.98001415966235 121.04321683836739,443.8628419500399 129.0139717634722,428.00575941625493 144.9693755130853,419.20823458663574 163.5737282347839,421.02149241578803 178.2545119753414,433.3409918351875 183.524029774742,452.25819123685596 177.02192182974798,471.28792476092934 160.5212063040294,483.59083532614295 139.4830028855819,484.4295334225621 121.25467238357187,472.9770785833233 112.50383206613179,452.792380753972 116.78438849970468,430.73129084081006 133.1214441327561,414.61985935816074" fill="none" fill-opacity="1.0" stroke="darkgreen" stroke-width="2.0" stroke-opacity="1.0" stroke-linecap="butt" transform="translate(0,0) scale(1,1) rotate(0,0,0) skewX(0) skewY(0)" />
    <polyline points="440.0,450.0 424.1481456572267,456.470476127563 434.6410161513775,470.0 417.6776695296637,467.67766952966366 420.0,484.6410161513775 406.470476127563,474.1481456572267 400.0,490.0 393.529523872437,474.1481456572267 380.0,484.6410161513775 382.32233047033634,467.6776695296637 365.3589838486225,470.0 375.8518543427733,456.470476127563 360.0,450.0 375.8518543427733,443.529523872437 365.3589838486225,430.0 382.3223304703363,432.32233047033634 380.0,415.3589838486225 393.529523872437,425.8518543427733 400.0,410.0 406.470476127563,425.85185434277327 420.0,415.3589838486225 417.67766952966366,432.3223304703363 434.6410161513775,430.0 424.1481456572267,443.529523872437 440.0,450.0" fill="lightpink" fill-opacity="0.4" stroke="magenta" stroke-width="2.0" stroke-opacity="1.0" stroke-linecap="butt" transform="translate(0,0) scale(1,1) rotate(0,0,0) skewX(0) skewY(0)" />
    <polyline points="500.0,200.0 505.0,210.0 510.0,217.32050807568876 515.0,220.0 520.0,217.32050807568876 525.0,210.0 530.0,200.0 535.0,190.0 540.0,182.67949192431124 545.0,180.0 550.0,182.67949192431124 555.0,190.0 560.0,199.99999999999997 565.0,210.0 570.0,217.32050807568876 575.0,220.0 580.0,217.3205080756888 585.0,210.0 590.0,200.0 595.0,190.0 600.0,182.67949192431124 605.0,180.0 610.0,182.67949192431124 615.0,190.0 620.0,199.99999999999994 625.0,209.99999999999997 630.0,217.32050807568876 635.0,220.0 640.0,217.3205080756888 645.0,210.00000000000003 650.0,200.0 655.0,190.00000000000003 660.0,182.67949192431124 665.0,180.0 670.0,182.67949192431124 675.0,189.99999999999994" fill="none" fill-opacity="1.0" stroke="teal" stroke-width="3.0" stroke-opacity="1.0" stroke-dasharray="8.0,4.0" stroke-linecap="butt" transform="translate(0,0) scale(1,1) rotate(0,0,0) skewX(0) skewY(0)" />
    <polyline points="0.0,0.0 60.0,0.0 60.0,40.0 0.0,40.0 0.0,0.0" fill="lightsteelblue" fill-opacity="0.5" stroke="navy" stroke-width="2.0" stroke-opacity="1.0" stroke-linecap="butt" transform="translate(450,250) scale(1,1) rotate(30,24.0,16.0) skewX(0) skewY(0)" />
    <polyline points="0.0,0.0 30.0,0.0 15.0,25.0 0.0,0.0" fill="violet" fill-opacity="0.4" stroke="darkviolet" stroke-width="2.0" stroke-opacity="1.0" stroke-linecap="butt" transform="translate(50,350) scale(2.0) rotate(0,0,0) skewX(0) skewY(0)" />
</svg>
