<?xml version="1.0" encoding="UTF-8"?>
<svg width="600.0" height="100.0" viewBox="0 0 550 80" xmlns="http://www.w3.org/2000/svg" xmlns:xlink="http://www.w3.org/1999/xlink">
    <text x="70.0" y="100.0" font-size="10.0" font-family="Arial" text-anchor="middle" dominant-baseline="central" fill="gray" transform="translate(0,0) scale(1,1) rotate(0,0,0) skewX(0) skewY(0)">Basic</text>
    <text x="200.0" y="100.0" font-size="10.0" font-family="Arial" text-anchor="middle" dominant-baseline="central" fill="gray" transform="translate(0,0) scale(1,1) rotate(0,0,0) skewX(0) skewY(0)">Text</text>
    <text x="330.0" y="100.0" font-size="10.0" font-family="Arial" text-anchor="middle" dominant-baseline="central" fill="gray" transform="translate(0,0) scale(1,1) rotate(0,0,0) skewX(0) skewY(0)">Rounded</text>
    <text x="450.0" y="100.0" font-size="10.0" font-family="Arial" text-anchor="middle" dominant-baseline="central" fill="gray" transform="translate(0,0) scale(1,1) rotate(0,0,0) skewX(0) skewY(0)">Rotated</text>
    <g transform="translate(20,20) scale(1,1) rotate(0,0,0) skewX(0) skewY(0)"><rect x="0.0" y="0.0" width="100.0" height="50.0" fill="lightgray" fill-opacity="1.0" stroke="black" stroke-width="1.0" stroke-opacity="1.0" stroke-linecap="butt" transform="translate(0,0) scale(1,1) rotate(0,0,0) skewX(0) skewY(0)" /></g>
    <g transform="translate(140,20) scale(1,1) rotate(0,0,0) skewX(0) skewY(0)"><rect x="0.0" y="0.0" width="120.0" height="50.0" fill="lightblue" fill-opacity="1.0" stroke="blue" stroke-width="1.0" stroke-opacity="1.0" stroke-linecap="butt" transform="translate(0,0) scale(1,1) rotate(0,0,0) skewX(0) skewY(0)" /><text x="60.0" y="25.0" font-size="14.0" font-family="Arial" text-anchor="middle" dominant-baseline="central" fill="black" transform="translate(0,0) scale(1,1) rotate(0,0,0) skewX(0) skewY(0)">Text Cell</text></g>
    <g transform="translate(280,20) scale(1,1) rotate(0,0,0) skewX(0) skewY(0)"><rect x="0.0" y="0.0" width="100.0" height="50.0" rx="15.0" ry="15.0" fill="lightgreen" fill-opacity="1.0" stroke="green" stroke-width="1.0" stroke-opacity="1.0" stroke-linecap="butt" transform="translate(0,0) scale(1,1) rotate(0,0,0) skewX(0) skewY(0)" /><text x="50.0" y="25.0" font-size="12.0" font-family="Arial" text-anchor="middle" dominant-baseline="central" fill="black" transform="translate(0,0) scale(1,1) rotate(0,0,0) skewX(0) skewY(0)">Rounded</text></g>
    <g transform="translate(400,20) scale(1,1) rotate(15,50.0,25.0) skewX(0) skewY(0)"><rect x="0.0" y="0.0" width="100.0" height="50.0" fill="lightcoral" fill-opacity="1.0" stroke="red" stroke-width="1.0" stroke-opacity="1.0" stroke-linecap="butt" transform="translate(0,0) scale(1,1) rotate(0,0,0) skewX(0) skewY(0)" /><text x="50.0" y="25.0" font-size="12.0" font-family="Arial" text-anchor="middle" dominant-baseline="central" fill="black" transform="translate(0,0) scale(1,1) rotate(0,0,0) skewX(0) skewY(0)">Rotated</text></g>
</svg>
